# xmcd
#
# Track frame offsets:
#	150
#	18403
#	34860
#	38913
#	53032
#	67087
#	76725
#	90755
#	107690
#	124474
#	141681
#
# Disc length: 2097 seconds
#
# Revision: 0
# Processed by: cddbd v1.5.1PL2 Copyright (c) Steve Scherf et al.
# Submitted via: dBpowerAMP V4.0
#
DISCID=92082f0b
DTITLE=Johnny Hawthorn - The Johnny Hawthorn Band
DYEAR=2006
DGENRE=Blues
TTITLE0=Walden's Pond
TTITLE1=Come on
TTITLE2=Sorry - intro
TTITLE3=Sorry
TTITLE4=Mercy
TTITLE5=Mercy Jamm
TTITLE6=Hey baby
TTITLE7=Cossroads
TTITLE8=Still in love
TTITLE9=Shadow man
TTITLE10=Cream
EXTD=
EXTT0=
EXTT1=
EXTT2=
EXTT3=
EXTT4=
EXTT5=
EXTT6=
EXTT7=
EXTT8=
EXTT9=
EXTT10=
PLAYORDER=
